<svg width="200" height="200" viewBox="0 0 200 200" fill="none" xmlns="http://www.w3.org/2000/svg">
<path d="M138 132.305C138 167.374 114.819 189.439 101.972 198.973C98.5122 201.538 93.6476 198.996 93.6476 194.668C93.6476 193.14 94.31 191.716 95.4405 190.702C101.59 185.186 105.986 177.681 109.144 169.899C106.055 170.706 102.84 171.179 99.5 171.179C78.2374 171.179 61 153.777 61 132.311C61 110.845 78.2374 93.4429 99.5 93.4429C120.763 93.4429 138 110.845 138 132.311V132.305Z" fill="#55C6FF"/>
<path d="M99.5 81.1942C120.763 81.1942 138 63.0182 138 40.5971C138 18.1759 120.763 0 99.5 0C78.237 0 61 18.1759 61 40.5971C61 63.0182 78.237 81.1942 99.5 81.1942Z" fill="#3C3C3D"/>
</svg>
