<svg width="246" height="40" viewBox="0 0 246 40" fill="none" xmlns="http://www.w3.org/2000/svg">
<path d="M43.67 14.89V20.16H38.15V39.1H31.66V0H38.15V14.89H43.67Z" fill="white"/>
<path d="M78.6799 0H72.2V39.11H78.6799V0Z" fill="white"/>
<path d="M100.27 0.540039V15.3H91.86V0.540039H85.3301V38.35H106.79V0.540039H100.26H100.27ZM100.27 33.16H91.86V20.5301H100.27V33.16Z" fill="white"/>
<path d="M119.67 0H113.19V39.11H119.67V0Z" fill="white"/>
<path d="M124.65 14.76H153.72V12.92H126.95V7.78006H153.72V5.73004H127.58V0.540039H160.2V14.76H163.05V19.9901H124.65V14.76Z" fill="white"/>
<path d="M127.37 28.0201H153.93V26.5101H127.37V21.6201H160.41V32.7501H133.89V34.2101H161.25V39.1001H127.37V28.0201Z" fill="white"/>
<path d="M185.93 38.35H167.44V16.5601H178.94V5.81006H167.36V0.540039H185.51V21.83H173.96V33.1201H185.93V38.35Z" fill="white"/>
<path d="M196.26 14.93V0H202.53V39.1H196.26V20.16H194.08V38.56H187.85V0.329987H194.08V14.93H196.26Z" fill="white"/>
<path d="M245.11 33.04H206.63V38.2701H245.11V33.04Z" fill="white"/>
<path d="M242.06 25.5901C240.39 25.3101 238.73 24.8901 237.08 24.3401C235.43 23.7801 233.9 23.1101 232.48 22.3101C231.06 21.5201 229.78 20.6101 228.63 19.5901C227.49 18.5701 226.57 17.4501 225.87 16.2201C225.17 17.4501 224.27 18.5701 223.15 19.5901C222.03 20.6101 220.77 21.5101 219.34 22.3101C217.92 23.1001 216.38 23.7801 214.74 24.3401C213.09 24.9001 211.41 25.3201 209.68 25.5901L207.63 20.6501C209.83 20.2301 211.85 19.6401 213.7 18.8701C215.54 18.1001 217.12 17.17 218.43 16.07C219.74 14.97 220.76 13.7101 221.48 12.2801C222.2 10.8601 222.57 9.28005 222.57 7.55005V0.310059H229.18V7.55005C229.18 9.28005 229.54 10.8501 230.27 12.2801C230.99 13.7001 232.01 14.96 233.32 16.07C234.63 17.18 236.2 18.1101 238.03 18.8701C239.86 19.6401 241.88 20.2301 244.12 20.6501L242.07 25.5901H242.06Z" fill="white"/>
<path d="M68.95 15.6099C68.95 27.5799 60.9599 35.1099 56.5399 38.3599C55.3499 39.2399 53.6699 38.3599 53.6699 36.8899C53.6699 36.3699 53.8999 35.8799 54.2899 35.5399C56.4099 33.6599 57.9199 31.0999 59.0099 28.4399C57.9499 28.7099 56.8399 28.8799 55.6899 28.8799C48.3599 28.8799 42.4299 22.9399 42.4299 15.6199C42.4299 8.29987 48.3699 2.35986 55.6899 2.35986C63.0099 2.35986 68.95 8.29987 68.95 15.6199V15.6099Z" fill="#0090C9"/>
<path d="M13.82 33.1701C21.4526 33.1701 27.64 26.2708 27.64 17.7601C27.64 9.24939 21.4526 2.3501 13.82 2.3501C6.18743 2.3501 0 9.24939 0 17.7601C0 26.2708 6.18743 33.1701 13.82 33.1701Z" fill="#55C6FF"/>
</svg>
